STARTFONT 2.1
COMMENT
COMMENT Converted from OpenType font "SStock (2).ttf" by "otf2bdf 3.0".
COMMENT
FONT -FreeType-SStock-Medium-R-Normal--19-140-100-100-P-100-ISO10646-1
SIZE 14 100 100
FONTBOUNDINGBOX 19 19 -2 -5
STARTPROPERTIES 19
FOUNDRY "FreeType"
FAMILY_NAME "SStock"
WEIGHT_NAME "Medium"
SLANT "R"
SETWIDTH_NAME "Normal"
ADD_STYLE_NAME ""
PIXEL_SIZE 19
POINT_SIZE 140
RESOLUTION_X 100
RESOLUTION_Y 100
SPACING "P"
AVERAGE_WIDTH 100
CHARSET_REGISTRY "ISO10646"
CHARSET_ENCODING "1"
FONT_ASCENT 14
FONT_DESCENT 4
COPYRIGHT "ImBenji"
_OTF_FONTFILE "SStock (2).ttf"
_OTF_PSNAME "SStock"
ENDPROPERTIES
CHARS 74
STARTCHAR 0020
ENCODING 32
SWIDTH 308 0
DWIDTH 6 0
BBX 0 0 0 0
BITMAP
ENDCHAR
STARTCHAR 0021
ENCODING 33
SWIDTH 205 0
DWIDTH 4 0
BBX 2 15 -1 -1
BITMAP
C0
C0
C0
C0
C0
C0
C0
C0
C0
C0
C0
C0
00
C0
C0
ENDCHAR
STARTCHAR 0026
ENCODING 38
SWIDTH 771 0
DWIDTH 15 0
BBX 14 15 -1 -1
BITMAP
3F00
7F80
6180
6180
7B80
7B80
3F00
7E38
E778
C3F0
C1E0
C1E0
E3F0
7F78
3E3C
ENDCHAR
STARTCHAR 002C
ENCODING 44
SWIDTH 205 0
DWIDTH 4 0
BBX 2 5 -1 -4
BITMAP
C0
C0
40
80
80
ENDCHAR
STARTCHAR 002D
ENCODING 45
SWIDTH 308 0
DWIDTH 6 0
BBX 5 3 -1 2
BITMAP
F8
F8
F8
ENDCHAR
STARTCHAR 002E
ENCODING 46
SWIDTH 205 0
DWIDTH 4 0
BBX 2 2 -1 -1
BITMAP
C0
C0
ENDCHAR
STARTCHAR 002F
ENCODING 47
SWIDTH 411 0
DWIDTH 8 0
BBX 8 19 -2 -5
BITMAP
03
03
0E
0E
0E
0E
1C
1C
1C
30
30
30
30
60
60
60
C0
C0
C0
ENDCHAR
STARTCHAR 0030
ENCODING 48
SWIDTH 617 0
DWIDTH 12 0
BBX 11 15 -1 -1
BITMAP
3F00
7F80
6180
C0E0
C0E0
C0E0
C0E0
C0E0
C0E0
C0E0
C0E0
C0E0
6180
7F80
3F00
ENDCHAR
STARTCHAR 0031
ENCODING 49
SWIDTH 308 0
DWIDTH 6 0
BBX 5 15 -1 -1
BITMAP
38
F8
F8
38
38
38
38
38
38
38
38
38
38
38
38
ENDCHAR
STARTCHAR 0032
ENCODING 50
SWIDTH 565 0
DWIDTH 11 0
BBX 9 15 -1 -1
BITMAP
7E00
FF00
C380
8180
8180
0180
0380
0700
1E00
3C00
7800
7800
E000
FF80
FF80
ENDCHAR
STARTCHAR 0033
ENCODING 51
SWIDTH 565 0
DWIDTH 11 0
BBX 9 15 -1 -1
BITMAP
FF80
FF80
0300
0600
1E00
1C00
3F00
0380
0180
0180
0180
0180
8380
FF00
7E00
ENDCHAR
STARTCHAR 0034
ENCODING 52
SWIDTH 617 0
DWIDTH 12 0
BBX 11 15 -1 -1
BITMAP
0180
0380
0780
1F80
3F80
3D80
7980
E180
C180
FFE0
FFE0
FFE0
0180
0180
0180
ENDCHAR
STARTCHAR 0035
ENCODING 53
SWIDTH 617 0
DWIDTH 12 0
BBX 11 15 -1 -1
BITMAP
7FE0
7F80
6000
6000
7F80
7F80
7FE0
41E0
00E0
00E0
40E0
40E0
E1E0
7F80
3F00
ENDCHAR
STARTCHAR 0036
ENCODING 54
SWIDTH 565 0
DWIDTH 11 0
BBX 9 15 -1 -1
BITMAP
0780
1F00
3C00
7800
7800
6000
FE00
FF00
E380
C180
C180
C180
E380
7F00
3E00
ENDCHAR
STARTCHAR 0037
ENCODING 55
SWIDTH 617 0
DWIDTH 12 0
BBX 11 15 -1 -1
BITMAP
FFE0
FFE0
0180
0180
0380
0380
0300
0700
0600
1E00
1C00
1C00
3C00
3800
7800
ENDCHAR
STARTCHAR 0038
ENCODING 56
SWIDTH 565 0
DWIDTH 11 0
BBX 9 15 -1 -1
BITMAP
3E00
7F00
E380
C180
C180
C180
E380
7F00
E380
C180
C180
C180
E380
7F00
3E00
ENDCHAR
STARTCHAR 0039
ENCODING 57
SWIDTH 565 0
DWIDTH 11 0
BBX 9 15 -1 -1
BITMAP
3E00
7F00
E380
C180
C180
C180
E380
7F80
3F80
0300
0600
0600
1C00
3800
6000
ENDCHAR
STARTCHAR 003A
ENCODING 58
SWIDTH 205 0
DWIDTH 4 0
BBX 2 9 -1 -1
BITMAP
C0
C0
00
00
00
00
00
C0
C0
ENDCHAR
STARTCHAR 003B
ENCODING 59
SWIDTH 205 0
DWIDTH 4 0
BBX 2 12 -1 -4
BITMAP
C0
C0
00
00
00
00
00
C0
C0
40
80
80
ENDCHAR
STARTCHAR 003F
ENCODING 63
SWIDTH 617 0
DWIDTH 12 0
BBX 11 15 -1 -1
BITMAP
3F00
7F80
E1E0
C0E0
C0E0
00E0
01E0
0380
0700
1E00
1C00
1C00
0000
1C00
1C00
ENDCHAR
STARTCHAR 0041
ENCODING 65
SWIDTH 720 0
DWIDTH 14 0
BBX 13 15 -1 -1
BITMAP
0700
0700
1D80
1D80
3DE0
38E0
38E0
38E0
6070
7FF0
7FF0
7FF0
C038
C038
C038
ENDCHAR
STARTCHAR 0042
ENCODING 66
SWIDTH 617 0
DWIDTH 12 0
BBX 11 15 -1 -1
BITMAP
FE00
FF00
C380
C180
C380
C380
FF00
FF80
C1E0
C0E0
C0E0
C0E0
C1E0
FF80
FF00
ENDCHAR
STARTCHAR 0043
ENCODING 67
SWIDTH 720 0
DWIDTH 14 0
BBX 13 15 -1 -1
BITMAP
07E0
3FF8
7838
6000
E000
C000
C000
C000
C000
C000
6000
6000
7838
3FF8
07E0
ENDCHAR
STARTCHAR 0044
ENCODING 68
SWIDTH 720 0
DWIDTH 14 0
BBX 13 15 -1 -1
BITMAP
FF00
FFE0
C0F0
C070
C078
C038
C038
C038
C038
C038
C070
C070
C0F0
FFE0
FF00
ENDCHAR
STARTCHAR 0045
ENCODING 69
SWIDTH 565 0
DWIDTH 11 0
BBX 9 15 -1 -1
BITMAP
FF80
FF80
C000
C000
C000
C000
FF00
FF00
C000
C000
C000
C000
C000
FF80
FF80
ENDCHAR
STARTCHAR 0046
ENCODING 70
SWIDTH 565 0
DWIDTH 11 0
BBX 9 15 -1 -1
BITMAP
FF80
FF80
C000
C000
C000
C000
FF00
FF00
C000
C000
C000
C000
C000
C000
C000
ENDCHAR
STARTCHAR 0047
ENCODING 71
SWIDTH 720 0
DWIDTH 14 0
BBX 13 15 -1 -1
BITMAP
07E0
3FF8
7878
6000
E000
C000
C000
C1F8
C1F8
C038
6038
6038
7838
3FF8
07E0
ENDCHAR
STARTCHAR 0048
ENCODING 72
SWIDTH 617 0
DWIDTH 12 0
BBX 11 15 -1 -1
BITMAP
C0E0
C0E0
C0E0
C0E0
C0E0
C0E0
FFE0
FFE0
C0E0
C0E0
C0E0
C0E0
C0E0
C0E0
C0E0
ENDCHAR
STARTCHAR 0049
ENCODING 73
SWIDTH 205 0
DWIDTH 4 0
BBX 2 15 -1 -1
BITMAP
C0
C0
C0
C0
C0
C0
C0
C0
C0
C0
C0
C0
C0
C0
C0
ENDCHAR
STARTCHAR 004A
ENCODING 74
SWIDTH 617 0
DWIDTH 12 0
BBX 11 15 -1 -1
BITMAP
00E0
00E0
00E0
00E0
00E0
00E0
00E0
00E0
00E0
00E0
40E0
40E0
E1E0
7F80
3F00
ENDCHAR
STARTCHAR 004B
ENCODING 75
SWIDTH 720 0
DWIDTH 14 0
BBX 13 15 -1 -1
BITMAP
C0F0
C1E0
C380
C700
DF00
DE00
FC00
FC00
DE00
C700
C380
C380
C1E0
C0F0
C078
ENDCHAR
STARTCHAR 004C
ENCODING 76
SWIDTH 565 0
DWIDTH 11 0
BBX 9 15 -1 -1
BITMAP
C000
C000
C000
C000
C000
C000
C000
C000
C000
C000
C000
C000
C000
FF80
FF80
ENDCHAR
STARTCHAR 004D
ENCODING 77
SWIDTH 874 0
DWIDTH 17 0
BBX 15 15 -1 -1
BITMAP
C006
E00E
F83E
FC7E
FEFE
DEF6
C7E6
C386
C106
C006
C006
C006
C006
C006
C006
ENDCHAR
STARTCHAR 004E
ENCODING 78
SWIDTH 771 0
DWIDTH 15 0
BBX 14 15 -1 -1
BITMAP
C00C
C00C
E00C
F80C
FC0C
FC0C
DE0C
C70C
C38C
C1EC
C0FC
C0FC
C07C
C03C
C00C
ENDCHAR
STARTCHAR 004F
ENCODING 79
SWIDTH 874 0
DWIDTH 17 0
BBX 15 15 -1 -1
BITMAP
07E0
3FF8
783C
E00E
E00E
C006
C006
C006
C006
C006
E00E
E00E
783C
3FF8
07E0
ENDCHAR
STARTCHAR 0050
ENCODING 80
SWIDTH 617 0
DWIDTH 12 0
BBX 11 15 -1 -1
BITMAP
FF00
FF80
C1E0
C0E0
C0E0
C0E0
C1E0
FF80
FF00
C000
C000
C000
C000
C000
C000
ENDCHAR
STARTCHAR 0051
ENCODING 81
SWIDTH 925 0
DWIDTH 18 0
BBX 16 15 -1 -1
BITMAP
07E0
3FF8
783C
E00E
E00E
C006
C006
C006
C006
C076
E07E
E07E
783C
3FFE
07E7
ENDCHAR
STARTCHAR 0052
ENCODING 82
SWIDTH 668 0
DWIDTH 13 0
BBX 12 15 -1 -1
BITMAP
FF00
FF80
C1E0
C0E0
C1E0
C1E0
FF80
FF00
C300
C380
C180
C180
C1E0
C0E0
C0F0
ENDCHAR
STARTCHAR 0053
ENCODING 83
SWIDTH 617 0
DWIDTH 12 0
BBX 11 15 -1 -1
BITMAP
1F00
3F80
7900
6000
7800
7800
3E00
0780
01E0
00E0
40E0
40E0
E1E0
7F80
3F00
ENDCHAR
STARTCHAR 0054
ENCODING 84
SWIDTH 668 0
DWIDTH 13 0
BBX 12 15 -1 -1
BITMAP
FFF0
FFF0
0600
0600
0600
0600
0600
0600
0600
0600
0600
0600
0600
0600
0600
ENDCHAR
STARTCHAR 0055
ENCODING 85
SWIDTH 720 0
DWIDTH 14 0
BBX 13 15 -1 -1
BITMAP
C038
C038
C038
C038
C038
C038
C038
C038
C038
C038
E078
E078
78F0
3FE0
1F80
ENDCHAR
STARTCHAR 0056
ENCODING 86
SWIDTH 720 0
DWIDTH 14 0
BBX 13 15 -1 -1
BITMAP
C038
C038
6070
6070
6070
6070
38E0
38E0
38E0
1D80
1D80
1D80
1D80
0700
0700
ENDCHAR
STARTCHAR 0057
ENCODING 87
SWIDTH 874 0
DWIDTH 17 0
BBX 15 15 -1 -1
BITMAP
C006
C006
C386
638C
67EC
67EC
66EC
66EC
66EC
66EC
3C78
3C78
3C78
3C78
3C78
ENDCHAR
STARTCHAR 0058
ENCODING 88
SWIDTH 617 0
DWIDTH 12 0
BBX 11 15 -1 -1
BITMAP
C0E0
E0E0
61E0
7B80
7F80
3F00
1F00
1E00
1E00
3F00
7B80
7B80
6180
E1E0
C0E0
ENDCHAR
STARTCHAR 0059
ENCODING 89
SWIDTH 771 0
DWIDTH 15 0
BBX 14 15 -1 -1
BITMAP
E03C
7878
3870
3CF0
3FF0
1FE0
0780
0300
0300
0300
0300
0300
0300
0300
0300
ENDCHAR
STARTCHAR 005A
ENCODING 90
SWIDTH 668 0
DWIDTH 13 0
BBX 12 15 -1 -1
BITMAP
FFF0
FFE0
01E0
0380
0380
0300
0700
1E00
1C00
3C00
7800
7800
6000
FFE0
FFF0
ENDCHAR
STARTCHAR 005F
ENCODING 95
SWIDTH 565 0
DWIDTH 11 0
BBX 9 3 -1 -4
BITMAP
FF80
FF80
FF80
ENDCHAR
STARTCHAR 0061
ENCODING 97
SWIDTH 565 0
DWIDTH 11 0
BBX 9 12 -1 -1
BITMAP
7E00
FF00
FF00
8180
1F80
7F80
E080
C080
C080
C080
FF80
7D80
ENDCHAR
STARTCHAR 0062
ENCODING 98
SWIDTH 617 0
DWIDTH 12 0
BBX 11 15 -1 -1
BITMAP
C000
C000
C000
C000
DF00
DF00
FF80
E1E0
C0E0
C0E0
C0E0
C0E0
E1E0
FF80
DF00
ENDCHAR
STARTCHAR 0063
ENCODING 99
SWIDTH 565 0
DWIDTH 11 0
BBX 9 12 -1 -1
BITMAP
3F00
7F80
7F80
E180
C000
C000
C000
C000
C000
E180
7F80
3F00
ENDCHAR
STARTCHAR 0064
ENCODING 100
SWIDTH 617 0
DWIDTH 12 0
BBX 11 15 -1 -1
BITMAP
00E0
00E0
00E0
3EE0
7FE0
7FE0
E1E0
C0E0
C0E0
C0E0
C0E0
C0E0
E0E0
7FE0
3EE0
ENDCHAR
STARTCHAR 0065
ENCODING 101
SWIDTH 565 0
DWIDTH 11 0
BBX 9 12 -1 -1
BITMAP
3E00
7F00
7F00
E380
C180
FF80
FF80
C000
C000
E080
7F80
3F00
ENDCHAR
STARTCHAR 0066
ENCODING 102
SWIDTH 411 0
DWIDTH 8 0
BBX 7 15 -1 -1
BITMAP
3E
7E
60
FE
FE
FE
60
60
60
60
60
60
60
60
60
ENDCHAR
STARTCHAR 0067
ENCODING 103
SWIDTH 565 0
DWIDTH 11 0
BBX 9 16 -1 -5
BITMAP
3F80
7F80
7F80
6300
6300
7F00
3E00
6000
6000
3E00
7F00
C180
C180
FF80
FF80
7F00
ENDCHAR
STARTCHAR 0068
ENCODING 104
SWIDTH 565 0
DWIDTH 11 0
BBX 9 15 -1 -1
BITMAP
C000
C000
C000
DE00
FF00
FF00
E380
C180
C180
C180
C180
C180
C180
C180
C180
ENDCHAR
STARTCHAR 0069
ENCODING 105
SWIDTH 205 0
DWIDTH 4 0
BBX 2 15 -1 -1
BITMAP
C0
C0
00
C0
C0
C0
C0
C0
C0
C0
C0
C0
C0
C0
C0
ENDCHAR
STARTCHAR 006A
ENCODING 106
SWIDTH 617 0
DWIDTH 12 0
BBX 5 19 5 -5
BITMAP
38
38
00
38
38
38
38
38
38
38
38
38
38
38
38
38
F8
F8
E0
ENDCHAR
STARTCHAR 006B
ENCODING 107
SWIDTH 617 0
DWIDTH 12 0
BBX 11 15 -1 -1
BITMAP
C000
C000
C000
C380
C780
C700
DE00
FC00
F800
FC00
DE00
DE00
C700
C380
C1E0
ENDCHAR
STARTCHAR 006C
ENCODING 108
SWIDTH 308 0
DWIDTH 6 0
BBX 5 15 -1 -1
BITMAP
C0
C0
C0
C0
C0
C0
C0
C0
C0
C0
C0
C0
C0
F8
78
ENDCHAR
STARTCHAR 006D
ENCODING 109
SWIDTH 771 0
DWIDTH 15 0
BBX 14 12 -1 -1
BITMAP
DEF8
FFFC
FFFC
C30C
C30C
C30C
C30C
C30C
C30C
C30C
C30C
C30C
ENDCHAR
STARTCHAR 006E
ENCODING 110
SWIDTH 565 0
DWIDTH 11 0
BBX 9 12 -1 -1
BITMAP
DE00
FF00
FF00
E380
C180
C180
C180
C180
C180
C180
C180
C180
ENDCHAR
STARTCHAR 006F
ENCODING 111
SWIDTH 668 0
DWIDTH 13 0
BBX 12 12 -1 -1
BITMAP
3F80
7FE0
7FE0
E0F0
C070
C070
C070
C070
C070
E0F0
7FE0
3F80
ENDCHAR
STARTCHAR 0070
ENCODING 112
SWIDTH 617 0
DWIDTH 12 0
BBX 11 16 -1 -5
BITMAP
DF00
FF80
FF80
E1E0
C0E0
C0E0
C0E0
C0E0
C0E0
E1E0
FF80
DF00
C000
C000
C000
C000
ENDCHAR
STARTCHAR 0071
ENCODING 113
SWIDTH 617 0
DWIDTH 12 0
BBX 11 16 -1 -5
BITMAP
3EE0
7FE0
7FE0
E1E0
C0E0
C0E0
C0E0
C0E0
C0E0
E1E0
7FE0
3EE0
00E0
00E0
00E0
00E0
ENDCHAR
STARTCHAR 0072
ENCODING 114
SWIDTH 360 0
DWIDTH 7 0
BBX 6 12 -1 -1
BITMAP
DC
FC
FC
E0
C0
C0
C0
C0
C0
C0
C0
C0
ENDCHAR
STARTCHAR 0073
ENCODING 115
SWIDTH 514 0
DWIDTH 10 0
BBX 8 12 -1 -1
BITMAP
7E
FF
FF
C1
C0
FE
7F
03
03
83
FF
7E
ENDCHAR
STARTCHAR 0074
ENCODING 116
SWIDTH 411 0
DWIDTH 8 0
BBX 7 14 -1 -1
BITMAP
60
60
FE
FE
FE
60
60
60
60
60
60
60
7E
3E
ENDCHAR
STARTCHAR 0075
ENCODING 117
SWIDTH 565 0
DWIDTH 11 0
BBX 9 12 -1 -1
BITMAP
C180
C180
C180
C180
C180
C180
C180
C180
C180
E380
7F80
3D80
ENDCHAR
STARTCHAR 0076
ENCODING 118
SWIDTH 617 0
DWIDTH 12 0
BBX 11 12 -1 -1
BITMAP
C0E0
C0E0
C0E0
6180
6180
6180
3B00
3B00
3B00
3B00
1E00
1E00
ENDCHAR
STARTCHAR 0077
ENCODING 119
SWIDTH 977 0
DWIDTH 19 0
BBX 18 12 -1 -1
BITMAP
C081C0
C081C0
C081C0
61E300
61E300
61E300
3B7600
3B7600
3B7600
3B7600
1E3C00
1E3C00
ENDCHAR
STARTCHAR 0078
ENCODING 120
SWIDTH 514 0
DWIDTH 10 0
BBX 8 12 -1 -1
BITMAP
C3
C3
C3
66
66
3C
3C
66
66
66
C3
C3
ENDCHAR
STARTCHAR 0079
ENCODING 121
SWIDTH 617 0
DWIDTH 12 0
BBX 11 16 -1 -5
BITMAP
C0E0
C0E0
C0E0
6180
6180
6180
3B00
3B00
3B00
3B00
1E00
1E00
1C00
FC00
FC00
F800
ENDCHAR
STARTCHAR 007A
ENCODING 122
SWIDTH 565 0
DWIDTH 11 0
BBX 9 12 -1 0
BITMAP
FF80
FF00
FF00
0600
0600
1C00
3800
3800
6000
6000
FF80
FF80
ENDCHAR
STARTCHAR 00A0
ENCODING 160
SWIDTH 308 0
DWIDTH 6 0
BBX 0 0 0 0
BITMAP
ENDCHAR
ENDFONT
